<?xml version="1.0" encoding="UTF-8" standalone="no"?>
<svg
   xmlns:dc="http://purl.org/dc/elements/1.1/"
   xmlns:cc="http://creativecommons.org/ns#"
   xmlns:rdf="http://www.w3.org/1999/02/22-rdf-syntax-ns#"
   xmlns:svg="http://www.w3.org/2000/svg"
   xmlns="http://www.w3.org/2000/svg"
   xmlns:sodipodi="http://sodipodi.sourceforge.net/DTD/sodipodi-0.dtd"
   xmlns:inkscape="http://www.inkscape.org/namespaces/inkscape"
   version="1.1"
   x="0px"
   y="0px"
   viewBox="0 0 89.999001 90"
   enable-background="new 0 0 100 100"
   xml:space="preserve"
   id="svg2"
   inkscape:version="0.91 r13725"
   sodipodi:docname="copy.svg"
   width="89.999001"
   height="90"><metadata
     id="metadata16"><rdf:RDF><cc:Work
         rdf:about=""><dc:format>image/svg+xml</dc:format><dc:type
           rdf:resource="http://purl.org/dc/dcmitype/StillImage" /><dc:title></dc:title></cc:Work></rdf:RDF></metadata><defs
     id="defs14" /><sodipodi:namedview
     pagecolor="#ffffff"
     bordercolor="#666666"
     borderopacity="1"
     objecttolerance="10"
     gridtolerance="10"
     guidetolerance="10"
     inkscape:pageopacity="0"
     inkscape:pageshadow="2"
     inkscape:window-width="836"
     inkscape:window-height="480"
     id="namedview12"
     showgrid="false"
     fit-margin-top="0"
     fit-margin-left="0"
     fit-margin-right="0"
     fit-margin-bottom="0"
     inkscape:zoom="1.888"
     inkscape:cx="45"
     inkscape:cy="32.5"
     inkscape:window-x="-1"
     inkscape:window-y="7"
     inkscape:window-maximized="0"
     inkscape:current-layer="svg2" /><g
     id="g4"
     transform="translate(-5,-5)"
     style="fill:#f9f9f9"><path
       d="M 89.808,5 27.5,5 c -2.863,0 -5.192,2.329 -5.192,5.192 l 0,12.115 -12.116,0 C 7.329,22.308 5,24.637 5,27.5 L 5,89.808 C 5,92.671 7.329,95 10.192,95 L 72.5,95 c 2.863,0 5.192,-2.329 5.192,-5.192 l 0,-12.116 12.115,0 c 2.863,0 5.192,-2.329 5.192,-5.192 l 0,-62.308 C 95,7.329 92.671,5 89.808,5 Z M 74.23,89.808 c 0,0.954 -0.776,1.73 -1.73,1.73 l -62.308,0 c -0.954,0 -1.73,-0.776 -1.73,-1.73 l 0,-62.308 c 0,-0.954 0.776,-1.73 1.73,-1.73 l 62.308,0 c 0.954,0 1.73,0.776 1.73,1.73 l 0,62.308 z M 91.538,72.5 c 0,0.954 -0.776,1.73 -1.73,1.73 l -12.116,0 0,-46.73 c 0,-2.863 -2.329,-5.192 -5.192,-5.192 l -46.73,0 0,-12.116 c 0,-0.954 0.776,-1.73 1.73,-1.73 l 62.308,0 c 0.954,0 1.73,0.776 1.73,1.73 l 0,62.308 z"
       id="path6"
       inkscape:connector-curvature="0"
       style="fill:#f9f9f9" /></g></svg>