<?xml version="1.0" encoding="utf-8"?>
<!DOCTYPE svg PUBLIC "-//W3C//DTD SVG 1.1//EN" "http://www.w3.org/Graphics/SVG/1.1/DTD/svg11.dtd">

<svg version="1.1"
	 xmlns="http://www.w3.org/2000/svg"
	 xmlns:xlink="http://www.w3.org/1999/xlink"
	 xmlns:data="http://www.myteamworks.org/2015/data"
	 x="0px" y="0px"
	 width="180px" height="36px"
	 viewBox="0 0 180 36">

	<style>
		.svg-logo, .svg-works {
			fill: #004777;
			clip-path: url(#logo_clip_path)
		}

		.svg-team {
			fill: #05af05;
			clip-path: url(#logo_clip_path)
		}
	</style>

	<clipPath id="logo_clip_path">
		<rect x="0" y="0" width="180" height="36"/>
	</clipPath>

	<path class="svg-logo" d="M53.842,26.465c-19.824,6.612-32.066,8.199-42.572,5.823
		c0-3.197,1.505-5.577,4.209-6.77c0.886,0.76,2.035,1.223,3.292,1.223c1.322,0,2.528-0.511,3.432-1.345c0.002,0,0.004,0,0.007,0.002
		c-0.39,1.493-0.492,2.654-0.253,4.7c0-1.454,0.23-3.11,0.946-4.353c1.03-1.738,2.624-3.104,4.525-3.851
		c0.897,0.621,1.983,0.986,3.156,0.986c1.21,0,2.331-0.39,3.246-1.051c0.01,0.005,0.02,0.007,0.028,0.01
		c-0.593,2.292-0.745,4.083-0.376,7.226c0-2.248,0.354-4.818,1.461-6.737c1.26-1.946,3.14-3.458,5.356-4.255
		c1.093,0.76,2.419,1.207,3.848,1.207c1.351,0,2.609-0.399,3.666-1.083c2.355,0.871,4.572,2.457,5.135,4.355
		c5.085-3.8,8.794-8.566,7.345-13.958C55.774-8.207,12.754,3.414,0,11.532C6.25,9.02,21.915,4.565,26.387,4.361
		C18.467,7.003-2.101,15.358,1.111,27.306c4.518,16.803,47.538,5.183,60.292-2.937C59.631,24.81,56.91,25.58,53.842,26.465
		 M44.147,6.729c3.196,0,5.794,2.598,5.794,5.795c0,3.194-2.598,5.796-5.794,5.796c-3.195,0-5.794-2.602-5.794-5.796
		C38.353,9.326,40.952,6.729,44.147,6.729 M30.584,12.723c2.534,0,4.595,2.061,4.595,4.598c0,2.534-2.061,4.597-4.595,4.597
		c-2.535,0-4.599-2.063-4.599-4.597C25.985,14.784,28.049,12.723,30.584,12.723 M18.771,25.777c-2.257,0-4.093-1.835-4.093-4.091
		c0-2.258,1.836-4.095,4.093-4.095s4.093,1.837,4.093,4.095C22.864,23.942,21.028,25.777,18.771,25.777"/>

	<g class="svg-team" data:text="team">
		<path data:letter="t" d="M74.498,12.075h-3.209v3.938c0,1.265,0.146,2.189,1.726,2.189
			c0.389,0,1.167-0.049,1.483-0.341V20.9c-0.803,0.292-1.702,0.364-2.553,0.364c-2.431,0-4.303-0.996-4.303-3.573v-5.616h-2.334
			V9.158h2.334V5.657h3.647v3.501h3.209V12.075z"/>
		<path data:letter="e" d="M87.139,18.932c-1.168,1.482-3.088,2.333-4.984,2.333
			c-3.647,0-6.564-2.431-6.564-6.199c0-3.769,2.917-6.199,6.564-6.199c3.403,0,5.543,2.43,5.543,6.199v1.142h-8.46
			c0.291,1.387,1.336,2.287,2.747,2.287c1.191,0,1.993-0.609,2.601-1.435L87.139,18.932z M84.051,13.729
			c0.024-1.215-0.924-2.237-2.237-2.237c-1.604,0-2.479,1.094-2.576,2.237H84.051z"/>
		<path data:letter="a" d="M96.888,19.49h-0.049c-0.803,1.265-2.261,1.774-3.744,1.774
			c-2.212,0-4.207-1.265-4.207-3.646c0-4.084,4.96-4.157,8-4.157c0-1.288-1.069-2.114-2.334-2.114c-1.191,0-2.188,0.534-2.967,1.409
			l-1.945-1.994c1.338-1.263,3.284-1.896,5.204-1.896c4.255,0,5.396,2.164,5.396,6.103v6.005h-3.354V19.49z M95.988,15.795
			c-1.119,0-3.598,0.098-3.598,1.702c0,0.875,0.923,1.288,1.726,1.288c1.435,0,2.771-0.754,2.771-2.213v-0.777H95.988z"/>
		<path data:letter="m" d="M102.483,9.158h3.501v1.604h0.048c0.486-0.924,1.678-1.896,3.452-1.896
			c1.653,0,3.015,0.681,3.647,2.115c0.851-1.507,1.993-2.115,3.744-2.115c3.209,0,4.182,2.261,4.182,5.13v6.978h-3.647v-6.88
			c0-1.094-0.413-2.018-1.604-2.018c-1.678,0-2.212,1.191-2.212,2.649v6.25h-3.647v-6.25c0-0.874,0.049-2.649-1.628-2.649
			c-1.896,0-2.189,1.482-2.189,3.016v5.882h-3.646V9.158z"/>
	</g>

	<g class="svg-works" data:text="works">
		<polygon data:letter="w" points="123.842,9.596 126.467,18.833 126.516,18.833 129.555,9.596
			131.208,9.596 134.247,18.833 134.296,18.833 136.922,9.596 138.817,9.596 135.22,20.974 133.421,20.974 130.406,11.638
			130.356,11.638 127.342,20.974 125.544,20.974 121.945,9.596 	"/>
		<path data:letter="o" d="M144.91,21.265c-3.525,0-6.029-2.552-6.029-5.98
			c0-3.428,2.504-5.981,6.029-5.981c3.55,0,6.054,2.553,6.054,5.981C150.964,18.713,148.46,21.265,144.91,21.265 M144.91,10.762
			c-2.625,0-4.279,1.97-4.279,4.523c0,2.552,1.654,4.521,4.279,4.521c2.649,0,4.304-1.969,4.304-4.521
			C149.214,12.732,147.56,10.762,144.91,10.762"/>
		<path data:letter="r" d="M153.301,13.145c0-1.021-0.049-1.896-0.098-3.549h1.58v2.114h0.05
			c0.461-1.214,1.653-2.406,3.647-2.406c0.461,0,0.85,0.049,1.189,0.146l-0.315,1.581c-0.194-0.073-0.486-0.122-0.924-0.122
			c-2.432,0-3.525,2.116-3.525,3.647v6.418h-1.604V13.145z"/>
		<polygon data:letter="k" points="162.531,14.725 167.904,9.596 170.311,9.596 164.646,14.798
			170.919,20.974 168.438,20.974 162.531,14.994 162.531,20.974 160.927,20.974 160.927,2.594 162.531,2.594 	"/>
		<path data:letter="s" d="M178.177,12.295c-0.486-0.924-1.289-1.533-2.455-1.533
			c-1.119,0-2.358,0.487-2.358,1.702c0,1.07,0.754,1.459,2.236,1.8l1.629,0.388c1.58,0.365,2.771,1.507,2.771,3.113
			c0,2.479-2.212,3.5-4.424,3.5c-1.727,0-3.307-0.607-4.377-2.211l1.387-0.948c0.656,1.02,1.653,1.7,2.99,1.7
			c1.312,0,2.674-0.583,2.674-1.895c0-1.143-0.973-1.533-2.164-1.824l-1.555-0.364c-0.778-0.196-2.918-0.826-2.918-2.991
			c0-2.359,2.065-3.428,4.205-3.428c1.58,0,3.063,0.559,3.793,2.043L178.177,12.295z"/>
	</g>
</svg>
