<?xml version="1.0" encoding="UTF-8" standalone="no"?>
<!-- Created with Inkscape (http://www.inkscape.org/) -->

<svg
   xmlns:dc="http://purl.org/dc/elements/1.1/"
   xmlns:cc="http://creativecommons.org/ns#"
   xmlns:rdf="http://www.w3.org/1999/02/22-rdf-syntax-ns#"
   xmlns:svg="http://www.w3.org/2000/svg"
   xmlns="http://www.w3.org/2000/svg"
   xmlns:sodipodi="http://sodipodi.sourceforge.net/DTD/sodipodi-0.dtd"
   xmlns:inkscape="http://www.inkscape.org/namespaces/inkscape"
   width="210mm"
   height="297mm"
   viewBox="0 0 744.09448819 1052.3622047"
   id="svg2"
   version="1.1"
   inkscape:version="0.91 r13725"
   sodipodi:docname="logo-no-email.svg">
  <defs
     id="defs4" />
  <sodipodi:namedview
     id="base"
     pagecolor="#ffffff"
     bordercolor="#666666"
     borderopacity="1.0"
     inkscape:pageopacity="0.0"
     inkscape:pageshadow="2"
     inkscape:zoom="0.98994949"
     inkscape:cx="197.60117"
     inkscape:cy="437.06532"
     inkscape:document-units="px"
     inkscape:current-layer="g4209"
     showgrid="false"
     inkscape:window-width="1920"
     inkscape:window-height="1027"
     inkscape:window-x="-8"
     inkscape:window-y="-8"
     inkscape:window-maximized="1" />
  <metadata
     id="metadata7">
    <rdf:RDF>
      <cc:Work
         rdf:about="">
        <dc:format>image/svg+xml</dc:format>
        <dc:type
           rdf:resource="http://purl.org/dc/dcmitype/StillImage" />
        <dc:title></dc:title>
      </cc:Work>
    </rdf:RDF>
  </metadata>
  <g
     inkscape:label="Layer 1"
     inkscape:groupmode="layer"
     id="layer1">
    <g
       id="g4209">
      <path
         style="fill:#414141"
         d="m 492.47646,717.08033 c -4.05008,-0.77744 -6.45174,-2.04634 -10.12655,-5.35031 -4.19566,-3.77226 -5.14631,-5.39813 -7.36693,-12.59949 -3.15489,-10.23116 -3.90426,-15.62816 -3.85503,-27.76427 0.0985,-24.27309 7.37527,-45.88329 23.2893,-69.163 2.12765,-3.11242 3.86846,-6.84141 3.86846,-8.28665 0,-1.44524 -1.1116,-7.67371 -2.47023,-13.84105 -1.35862,-6.16734 -3.18829,-15.48835 -4.06593,-20.71335 -0.87764,-5.225 -1.9919,-9.90337 -2.47615,-10.39638 -1.25975,-1.28255 -3.57284,4.29792 -6.48539,15.64638 -6.82097,26.5773 -8.53757,32.45985 -13.934,47.75 -2.75608,7.80901 -12.8482,26.967 -16.37832,31.09115 -1.86489,2.17871 -4.6732,4.62449 -6.24069,5.43507 -5.572,2.8814 -13.74936,1.17623 -20.67883,-4.31201 -2.13421,-1.69033 -4.3577,-2.76752 -4.94109,-2.39377 -2.36499,1.51517 -5.21658,9.28056 -7.22668,19.67956 -1.16945,6.05 -3.054,14.15 -4.18789,18 -2.64071,8.96624 -10.59853,25.16507 -13.28801,27.04885 -3.31465,2.32168 -11.29792,1.83393 -16.10643,-0.98405 -11.2055,-6.56686 -17.83767,-35.61174 -20.06267,-87.8623 -0.72031,-16.91523 -1.54523,-18.81718 -4.60583,-10.61931 -3.82757,10.25218 -20.71997,37.61875 -26.52181,42.9667 -3.4584,3.18784 -5.03555,3.95011 -8.17285,3.95011 -4.46762,0 -8.77225,-2.87228 -10.3129,-6.88132 -1.49303,-3.8851 -3.83976,-17.9625 -3.85394,-23.11868 -0.0187,-6.81011 -1.10463,-12 -2.51082,-12 -1.73871,0 -8.97104,17.78629 -11.16986,27.46973 -1.69803,7.47804 -2.00226,8.02452 -4.93129,8.85784 -5.36687,1.52689 -9.79051,-1.38964 -13.26656,-8.7467 -1.61476,-3.41766 -3.39854,-7.98398 -3.96395,-10.14739 -1.6172,-6.18789 -3.45756,-35.15039 -2.75988,-43.43348 2.11998,-25.16924 3.34928,-37.80708 4.15078,-42.67202 0.28742,-1.74461 0.14327,-3.40645 -0.32033,-3.69297 -0.46361,-0.28653 -4.03352,2.54561 -7.93314,6.29365 -7.95117,7.64209 -7.70461,6.97708 -10.77844,29.07134 -2.78655,20.02934 -12.9804,60.99118 -15.37722,61.79012 -0.61454,0.20484 -1.57591,-0.83366 -2.13637,-2.3078 -0.7791,-2.04918 -0.55611,-4.24622 0.94706,-9.33128 2.99018,-10.11541 6.76598,-26.77535 7.96661,-35.15104 0.59131,-4.125 1.99658,-13.31752 3.12283,-20.42783 1.12624,-7.1103 1.81941,-13.5228 1.54035,-14.25 -0.3057,-0.79664 -2.12557,-1.32217 -4.57858,-1.32217 -2.23918,0 -5.7408,-0.86258 -7.78139,-1.91684 -6.75768,-3.49132 -8.26753,-8.04482 -8.25698,-24.90188 0.007,-11.49711 0.41304,-14.49249 3.32701,-24.55537 1.58686,-5.47996 6.01226,-9.62591 10.27474,-9.62591 2.97608,0 4.08417,0.82814 8.86749,6.62718 6.46143,7.8335 7.56362,11.69781 7.60742,26.67204 l 0.0298,10.20078 3.94043,-4.5 c 2.16723,-2.475 5.3991,-6.60869 7.18194,-9.18598 3.4729,-5.02047 5.72667,-6.45598 11.61405,-7.39741 3.03414,-0.48517 4.10206,-0.18644 5.71746,1.5994 2.40591,2.65974 2.39616,10.7344 -0.0348,28.86526 -2.2471,16.75937 -2.84581,34.13075 -1.57226,45.61873 0.60973,5.5 1.61805,14.80013 2.24072,20.66695 1.56832,14.77685 2.90795,16.27644 6.35666,7.11571 0.99028,-2.63047 3.7397,-8.22402 6.10984,-12.43014 l 4.30933,-7.64747 -0.0477,-30.64617 c -0.0331,-21.24511 0.29641,-31.06083 1.07412,-31.99792 1.48371,-1.78777 6.88855,-2.74337 10.93691,-1.9337 5.69815,1.13963 6.38185,3.45273 5.18392,17.53822 -3.29274,38.71661 -3.41068,41.90029 -2.13942,57.74889 1.85955,23.1827 2.80385,31.26647 4.02787,34.4812 l 1.1025,2.89557 2.48808,-2.33743 c 3.39489,-3.18933 15.34495,-23.43542 20.97531,-35.5369 10.55854,-22.69374 11.18649,-24.7359 11.96655,-38.91681 0.71225,-12.94811 3.90392,-39.09203 7.06526,-57.87352 1.13433,-6.73902 1.32972,-10.07884 0.61546,-10.52027 -0.57556,-0.35572 -4.78719,-0.32117 -9.35916,0.0768 -19.1034,1.66276 -35.64154,2.02586 -44.1372,0.96903 -7.25029,-0.90191 -9.83697,-1.72743 -14.5,-4.6276 -7.12634,-4.43221 -15.52398,-12.15153 -14.68903,-13.50252 1.0409,-1.68421 3.45395,-1.16913 6.92465,1.4781 1.80272,1.375 3.91655,2.5 4.6974,2.5 0.78085,0 3.87696,0.89815 6.88026,1.99589 10.73604,3.92416 24.55208,3.78573 61.78019,-0.61903 5.52032,-0.65315 6.54303,-2.28775 9.6449,-15.41543 4.54273,-19.2256 10.25791,-34.04503 14.10064,-36.56289 3.13999,-2.0574 7.12221,-0.39246 7.87265,3.29149 1.37758,6.76263 1.43424,17.97521 0.14634,28.95937 -0.76896,6.55823 -1.00815,12.24177 -0.5356,12.72649 0.48673,0.49927 6.58317,-0.29101 14.178,-1.83789 46.1639,-9.40243 75.20573,-12.85436 87.82411,-10.43883 14.40468,2.75749 23.64745,5.19523 27.93434,7.36756 5.07987,2.57416 12.50224,10.01785 11.54063,11.57377 -1.03948,1.68192 -5.80731,1.01801 -11.40641,-1.58833 -10.04004,-4.67355 -21.81221,-6.64841 -39.56856,-6.63791 -8.8,0.005 -18.25,0.52999 -21,1.16618 -2.75,0.6362 -8.15,1.55269 -12,2.03666 -16.2091,2.03757 -52.67637,8.95886 -58.13224,11.03318 -2.59989,0.98847 -4.02754,3.90203 -5.36693,10.95286 -1.13706,5.98573 -10.17169,37.06477 -14.24331,48.99686 -3.2307,9.46775 -3.24208,9.57128 -3.35257,30.5 -0.20013,37.90715 2.46194,72.32916 6.99894,90.5 3.86118,15.46412 5.59684,20.75572 7.26097,22.13682 1.33642,1.10913 1.90814,0.88233 3.82001,-1.51539 2.97583,-3.73204 10.39268,-21.30368 15.03553,-35.62143 2.05103,-6.325 5.48911,-15.00958 7.6402,-19.29906 l 3.91106,-7.79907 -2.03072,-5.70093 c -4.98836,-14.00405 -6.39471,-37.72094 -3.5764,-60.31268 1.96088,-15.71853 7.71296,-30.86785 14.33811,-37.76248 6.32967,-6.58713 14.71592,-6.51264 18.75678,0.1666 1.56744,2.59087 1.93439,5.03425 1.90843,12.70762 -0.0412,12.17156 -1.98861,16.6563 -11.48599,26.45098 l -7.05154,7.27229 0.0108,15.66849 c 0.006,8.61768 0.50043,18.69244 1.09885,22.38837 2.6744,16.51752 6.44677,27.21987 9.59446,27.21987 2.24039,0 8.72329,-7.36586 12.90975,-14.66802 5.68193,-9.91061 13.94857,-29.16215 16.3219,-38.01084 1.20652,-4.49837 3.54967,-11.92337 5.207,-16.5 1.65734,-4.57663 3.40519,-9.89614 3.88411,-11.82114 0.47893,-1.925 1.53648,-5.75 2.35011,-8.5 0.81363,-2.75 2.87733,-9.72405 4.586,-15.49789 2.76905,-9.357 3.10907,-11.91095 3.12864,-23.5 0.029,-17.1881 2.23095,-22.60269 9.80795,-24.11809 4.41325,-0.88265 4.80084,0.93344 2.64429,12.39028 -1.62437,8.62958 -1.68155,10.96956 -0.566,23.16253 1.09243,11.94023 3.6207,27.30242 7.41638,45.06317 0.64648,3.025 1.71096,5.5 2.36551,5.5 1.68504,0 16.37192,-20.6872 26.30418,-37.05074 16.12829,-26.57157 26.01663,-55.08709 25.99013,-74.94926 -0.018,-13.30785 -8.19666,-34.22104 -15.86319,-40.56162 -4.83379,-3.99778 -10.29664,-5.63511 -13.67121,-4.09755 -1.39926,0.63754 -3.59298,1.15917 -4.87493,1.15917 -1.28195,0 -4.00942,0.70136 -6.06103,1.55858 -4.34424,1.81514 -5.55492,1.24906 -3.10898,-1.45367 1.73669,-1.91902 5.25795,-2.75201 15.82284,-3.74303 11.13393,-1.0444 21.8154,4.76382 26.6913,14.51381 1.547,3.09337 3.8793,7.64931 5.183,10.12431 1.9555,3.71264 2.4344,6.34135 2.7369,15.02388 1.0379,29.78949 -14.39228,68.99867 -43.97992,111.75603 -14.18417,20.49766 -14.21838,20.59358 -10.98779,30.80493 1.02926,3.25334 2.64708,9.29016 3.59515,13.41516 0.94806,4.125 3.51214,13.35 5.69794,20.5 7.84707,25.66866 10.14013,39.82859 9.29942,57.4251 -0.61595,12.89218 -1.49067,15.95897 -5.61889,19.69994 -3.67374,3.32912 -6.53836,4.48572 -14.72825,5.94657 -8.69531,1.551 -11.49628,1.57268 -18.92601,0.14651 z m 19.7471,-7.05829 c 3.31276,-2.19229 4.08515,-3.40354 5.12049,-8.0299 1.57797,-7.05112 0.67542,-32.91143 -1.43548,-41.12993 -0.84759,-3.3 -3.10415,-12.3 -5.01457,-20 -5.75894,-23.21152 -8.41729,-32.709 -9.44211,-33.73382 -2.58881,-2.58881 -15.90265,19.59758 -19.47098,32.44676 -3.46255,12.46825 -4.88957,29.31557 -3.32774,39.28706 1.03152,6.58576 4.45465,18.11457 6.68069,22.5 2.30592,4.54281 7.86449,9.8438 11.54556,11.01055 4.61585,1.46303 11.0769,0.4732 15.34414,-2.35072 z M 435.16342,564.84871 c 4.62864,-5.27173 5.77924,-8.15445 7.02465,-17.59963 1.1721,-8.88924 0.12958,-15.73243 -2.52933,-16.60267 -1.96126,-0.6419 -5.15503,7.14815 -5.86781,14.31236 -0.37775,3.79689 -1.32096,9.74386 -2.09602,13.21549 -2.48045,11.1104 -1.7167,12.58008 3.46851,6.67445 z M 249.93175,542.63637 c 1.23202,-4.90875 -0.34504,-28.51255 -2.28972,-34.27013 -2.61435,-7.74025 -4.81182,-7.84611 -6.46454,-0.31141 -2.62326,11.95939 -0.84512,31.83359 3.24051,36.219 2.28704,2.45485 4.6638,1.74901 5.51375,-1.63746 z m 132.97023,-26.4316 c 1.18205,-4.12595 2.46918,-9.82842 2.86029,-12.67215 0.59007,-4.29027 0.44985,-5.17041 -0.82371,-5.17041 -0.84415,0 -1.83438,0.4847 -2.20051,1.07712 -1.05178,1.70182 -3.18683,11.82066 -3.96541,18.79361 -0.99949,8.95148 1.30855,7.81786 4.12934,-2.02817 z m 6.31415,-31.25872 c 1.02935,-1.24029 3.00204,-15.03049 3.05181,-21.33384 0.0205,-2.60129 -1.47911,-3.00349 -2.38609,-0.63994 -1.41404,3.68493 -4.66778,21.46501 -4.09706,22.38845 0.86127,1.39356 2.04985,1.24992 3.43134,-0.41467 z M 202.72447,714.54599 c -3.23381,-2.03331 -10.43876,-9.92491 -10.43876,-11.4336 0,-0.48941 -1.29278,-2.77091 -2.87285,-5.07 -3.5526,-5.16926 -8.82099,-17.39498 -9.66439,-22.42701 -0.34599,-2.06424 -1.21194,-5.77817 -1.92435,-8.25317 -1.43615,-4.98937 -4.16842,-22.81137 -5.09592,-33.23948 -0.32968,-3.70671 -0.99562,-6.98434 -1.47987,-7.28362 -0.48424,-0.29928 -2.72052,5.43348 -4.96949,12.73948 -5.20098,16.89583 -10.57694,29.79859 -13.33759,32.01138 -3.28397,2.63226 -8.93053,2.25318 -12.61473,-0.84688 -7.24106,-6.09295 -8.54081,-14.48284 -8.54081,-55.13105 0,-17.18759 -0.24536,-31.25009 -0.54525,-31.25 -0.29989,10e-5 -2.09989,3.03482 -4,6.74383 -1.90011,3.70902 -5.31589,9.46412 -7.59062,12.78912 -7.47266,10.92289 -13.60721,27.02659 -14.93944,39.21722 -0.55147,5.04625 -1.02274,6.25 -2.44687,6.25 -7.00841,0 -0.91223,-25.3354 10.89747,-45.28928 3.36859,-5.69164 6.12471,-10.71459 6.12471,-11.16212 0,-0.44752 3.2212,-6.18229 7.15823,-12.74394 6.94476,-11.57447 7.18248,-12.18931 7.97149,-20.61746 2.13024,-22.75513 6.85032,-42.32186 13.26072,-54.97135 3.86501,-7.62672 5.7767,-9.21585 11.08651,-9.21585 6.45869,0 8.01263,2.6562 7.19004,12.29013 -0.76669,8.97932 -2.69874,14.63775 -11.01623,32.26341 -7.85034,16.63574 -9.00486,22.25209 -10.67833,51.94646 -0.82752,14.68359 -0.83434,24.65186 -0.0257,37.5 1.90931,30.33498 2.93651,36.42624 5.84011,34.63172 2.26156,-1.39772 8.31823,-16.40362 18.01421,-44.63172 3.09022,-8.9966 3.58055,-11.63955 3.42456,-18.45879 -0.21553,-9.42186 1.03293,-11.9952 6.53874,-13.47776 5.48257,-1.47631 9.39182,-0.12396 11.52642,3.98738 1.51868,2.92504 1.78739,6.03246 1.76833,20.44917 -0.0382,28.92417 1.67007,43.14766 7.49881,62.43544 3.96627,13.12466 13.16462,32.56456 15.40854,32.56456 1.38486,0 3.22154,-3.91477 6.0173,-12.82545 1.76329,-5.62002 3.96956,-29.38094 4.00887,-43.17455 0.0704,-24.68949 -4.95595,-81.10411 -7.91308,-88.8151 -1.41001,-3.67674 -1.40802,-3.6849 0.89738,-3.6849 6.02515,0 9.15674,14.05611 12.36494,55.5 1.52836,19.74362 1.25864,66.95908 -0.4513,79 -1.16981,8.23753 -5.20754,17.66688 -9.05676,21.15038 -2.97788,2.69495 -13.44675,3.01596 -17.39507,0.5334 z m -42.071,-204.08215 c 0.7356,-4.60023 -0.13698,-8.07246 -1.49161,-5.93548 -1.11787,1.76349 -1.1246,11.10543 -0.008,10.41503 0.47775,-0.29527 1.15235,-2.31107 1.49911,-4.47955 z m -270.86776,186.16409 c -9.77436,-0.91079 -16.72541,-5.95861 -20.33297,-14.76572 -1.83424,-4.4779 -2.02339,-6.82734 -1.8115,-22.5 0.23035,-17.03809 0.43389,-18.53069 4.50005,-33 0.54096,-1.925 2.91387,-8.9 5.27313,-15.5 5.20985,-14.5745 5.2963,-17.96332 1.2432,-48.73146 -2.5278,-19.18923 -3.81755,-24.9556 -4.9676,-22.20986 -0.24389,0.58228 -2.91324,5.08228 -5.93189,10 -3.01865,4.91773 -6.27234,10.24772 -7.23044,11.84444 -0.95809,1.59671 -3.59839,5.23399 -5.86734,8.08284 -2.26894,2.84885 -4.63621,6.13427 -5.26059,7.30093 -1.27257,2.37783 -10.46668,14.52625 -12.98304,17.15485 -0.89706,0.93706 -2.8357,3.09279 -4.30809,4.79051 -1.47239,1.69771 -3.27239,3.46498 -4,3.92725 -4.53647,2.88218 -22.82292,27.57295 -22.82292,30.81601 0,0.39723 -0.62615,2.14024 -1.39145,3.87336 -2.97685,6.74146 -4.05787,13.3731 -3.89611,23.90113 0.16174,10.52717 0.11858,10.75 -2.08251,10.75 -3.53494,0 -5.86989,-2.34752 -7.0816,-7.11973 -1.5731,-6.19547 0.35898,-20.50708 3.88802,-28.80002 1.2543,-9.69909 5.11336,-11.05046 8.68752,-16.33025 1.83279,-2.8875 8.9672,-11.16883 15.85424,-18.40295 6.88704,-7.23412 13.5474,-14.43412 14.80081,-16 5.85269,-7.31178 14.0372,-18.27141 16.68849,-22.34705 1.61004,-2.475 3.93031,-5.625 5.15617,-7 1.22586,-1.375 5.53545,-8.70094 9.57688,-16.27986 l 7.34806,-13.77987 -0.7101,-8.72013 c -1.41424,-17.36701 2.84782,-51.2476 7.87388,-62.59221 3.71321,-8.38132 8.83891,-16.28776 11.82964,-18.24737 4.04856,-2.65272 10.56559,-2.92391 13.08287,-0.54442 2.03782,1.92627 4.09633,10.18801 2.98608,11.98444 -0.28093,0.45455 -0.99664,4.73634 -1.59047,9.51509 -0.59383,4.77875 -2.46056,12.39567 -4.14829,16.92649 -1.68774,4.53081 -3.68457,10.26284 -4.43742,12.73784 -0.75284,2.475 -3.1794,8.73331 -5.39235,13.90736 l -4.02354,9.40736 0.96293,10.59264 c 0.52961,5.82595 1.61941,14.41764 2.42178,19.09264 0.80236,4.675 1.75267,11.6847 2.11178,15.57711 0.7045,7.63588 1.79509,10.547 3.33965,8.91453 0.51603,-0.5454 2.99919,-4.92838 5.51814,-9.73996 2.51895,-4.81157 7.77435,-13.50955 11.67866,-19.32883 7.11217,-10.60052 7.62638,-11.88558 11.37324,-28.42285 3.5173,-15.5241 16.52778,-56.58418 21.38836,-67.5 5.07125,-11.38897 12.86835,-24.01664 18.68664,-30.26369 5.96245,-6.40183 13.78104,-9.63891 19.93095,-8.25188 5.95471,1.343 6.84788,2.62833 6.08262,8.75327 -1.32875,10.63494 -6.59451,23.6541 -15.47565,38.2623 -2.17345,3.575 -4.9323,8.3 -6.13078,10.5 -1.19849,2.2 -4.48038,7.40251 -7.2931,11.56113 -2.81272,4.15863 -5.64276,8.43363 -6.28897,9.5 -0.64621,1.06638 -3.63539,5.83572 -6.64263,10.59854 -5.69368,9.01754 -6.71356,11.52813 -8.56757,21.09033 -0.61318,3.1625 -1.6607,8.32488 -2.32783,11.47195 -0.66713,3.14708 -1.22963,12.25958 -1.25,20.25 -0.0396,15.52558 1.17501,42.75312 1.96413,44.02994 0.26227,0.42437 0.94486,5.43505 1.51686,11.13484 0.572,5.6998 1.45897,13.06327 1.97106,16.36327 0.51208,3.3 1.42388,10.24688 2.02623,15.43751 0.60235,5.19064 1.46235,10.09362 1.91112,10.89553 0.82769,1.479 4.80013,-7.67122 8.61024,-19.83304 3.00139,-9.5804 16.95608,-37.06689 24.86775,-48.98188 4.19324,-6.31503 10.62266,-14.57773 14.2876,-18.36156 l 6.66353,-6.87967 4.47133,0.61286 c 7.45546,1.02189 7.23002,0.19105 6.77977,24.98618 -0.22096,12.16824 -0.94446,28.41293 -1.60777,36.09932 -0.67399,7.81004 -1.00763,22.14748 -0.75629,32.5 0.37928,15.62256 0.80103,19.62141 2.69206,25.52475 1.23328,3.85 2.8731,7.65453 3.64405,8.45451 1.22302,1.26906 1.58888,1.20531 2.86964,-0.5 1.94008,-2.5832 7.33382,-13.504 13.00116,-26.32368 2.52121,-5.70304 5.54591,-11.72002 6.72155,-13.37107 2.09287,-2.93915 2.10395,-3.15089 0.53009,-10.13083 -1.61737,-7.17289 -3.06179,-18.3852 -4.25835,-33.05543 -0.35559,-4.35958 -1.1045,-8.93167 -1.66426,-10.16021 -0.77203,-1.69442 -0.62673,-2.79195 0.60186,-4.546 0.89078,-1.27177 1.62743,-3.89967 1.637,-5.8398 0.0172,-3.4954 4.24788,-20.99911 7.38675,-30.56165 4.03599,-12.29564 4.5957,-13.27571 9.08372,-15.90587 5.00655,-2.93403 7.44262,-3.1644 11.46525,-1.08421 7.62415,3.9426 11.85163,20.46095 8.39203,32.79087 -2.1913,7.80975 -8.44012,14.84747 -15.40782,17.35302 -2.7806,0.99989 -5.56671,2.43379 -6.19136,3.18643 -1.69232,2.03913 -1.22931,25.94465 0.72039,37.19392 2.80923,16.20855 10.11455,34 13.96069,34 2.39911,0 6.54409,-8.75453 13.73055,-29 7.31833,-20.61697 14.01479,-33.82601 23.3245,-46.00855 6.67731,-8.73781 15.90045,-16.99145 18.98734,-16.99145 1.09923,0 -1.70609,4.44762 -5.36139,8.50006 -7.27012,8.06002 -20.40826,39.45357 -24.69136,58.99994 -2.77805,12.67791 -7.38649,22.93425 -13.3361,29.68023 -5.46148,6.19249 -9.13837,7.3827 -16.75215,5.42267 -4.64463,-1.19568 -6.61447,-2.37404 -9.69844,-5.80166 -2.12849,-2.36568 -4.83518,-6.32624 -6.01486,-8.80124 -1.17968,-2.475 -2.57498,-4.42756 -3.10066,-4.33903 -1.67158,0.28152 -11.40445,25.89051 -12.53898,32.99242 -0.59984,3.75481 -2.08312,8.63136 -3.29618,10.83677 -1.99564,3.62818 -2.6268,4.03999 -6.63127,4.32656 -9.02496,0.64587 -15.01266,-4.60869 -20.30258,-17.81672 -4.15057,-10.36326 -4.5785,-14.85819 -4.76014,-50 -0.0611,-11.825 0.37049,-26 0.95913,-31.5 2.14381,-20.03074 2.4264,-26.5 1.15756,-26.5 -0.65727,0 -1.96161,1.40671 -2.89853,3.12602 -0.93692,1.71932 -2.71599,4.37178 -3.95349,5.89436 -1.2375,1.52258 -2.25,3.07711 -2.25,3.45451 0,0.3774 -1.46783,3.01244 -3.26185,5.85564 -5.27488,8.35978 -5.53735,8.82803 -9.34417,16.66947 -5.70582,11.75307 -6.94123,14.63872 -12.20144,28.5 -2.71335,7.15 -5.72933,16.375 -6.70216,20.5 -0.97283,4.125 -2.31767,8.625 -2.98852,10 -0.67084,1.375 -1.48897,4.24331 -1.81805,6.37403 -0.85255,5.52008 -3.12147,7.62597 -8.21635,7.62597 -4.91605,0 -6.33212,-1.3179 -7.15692,-6.66077 -0.32597,-2.11158 -1.15257,-4.96423 -1.83688,-6.33923 -3.4124,-6.85665 -8.69469,-29.16614 -10.5364,-44.5 -0.46242,-3.85 -1.30422,-10.15 -1.87069,-14 -2.465,-16.75363 -3.17451,-28.69115 -2.54083,-42.75 0.41519,-9.21136 0.30462,-14.75 -0.29445,-14.75 -1.50024,0 -5.35552,6.2762 -13.57894,22.10582 l -7.58766,14.60583 1.01521,6.39417 c 0.55836,3.5168 2.0854,10.89418 3.39342,16.39418 13.04793,54.8643 14.95416,70.91566 9.79759,82.5 -3.21449,7.22142 -14.8557,14.00327 -22.77091,13.26572 z m 2.74313,-21.76572 c 1.07637,-11.58743 -1.86038,-47.04779 -4.26914,-51.5486 -0.51249,-0.9576 -1.22974,-4.27606 -1.59388,-7.37436 -0.36415,-3.0983 -1.01131,-5.84911 -1.43815,-6.11291 -0.8301,-0.51303 -2.96751,5.3364 -5.47182,14.97466 -0.84869,3.26634 -2.22779,12.81618 -3.06468,21.22187 -1.35159,13.5755 -1.35536,16.24639 -0.0337,23.90488 1.64342,9.52329 3.26967,12.11775 7.983,12.7358 7.08364,0.92886 7.07682,0.9356 7.88841,-7.80134 z M 62.06263,563.55698 c 4.06104,-5.27473 5.29129,-11.80382 4.13748,-21.95811 -0.95374,-8.39348 -3.05486,-13.88592 -4.88042,-12.75766 -3.33272,2.05973 -10.80682,38.41483 -8.39366,40.82798 1.03761,1.03762 6.38726,-2.54119 9.1366,-6.11221 z M -41.06235,465.5877 c 9.19113,-15.14397 9.90507,-16.81618 8.38902,-19.64896 -0.75841,-1.41709 -1.90692,-2.57653 -2.55225,-2.57653 -1.89573,0 -12.48871,24.71138 -12.48871,29.13377 0,2.22175 3.00456,-0.89858 6.65194,-6.90828 z m 13.32789,-22.92698 c 4.84986,-6.1656 13.19332,-29.45543 11.031,-30.79182 -1.32968,-0.82178 -7.46182,7.53473 -12.35695,16.83931 -5.12232,9.7364 -5.20394,10.07085 -3.40388,13.94683 1.56202,3.36342 2.08813,3.36406 4.72983,0.006 z m 336.24268,29.14479 c -2.80187,-1.96251 -3.02104,-7.41066 -0.39377,-9.78831 2.51346,-2.27466 3.68698,-2.08611 6.09868,0.97987 2.46788,3.1374 2.66681,6.62805 0.50115,8.79371 -1.97723,1.97723 -3.39937,1.98061 -6.20606,0.0147 z"
         id="path4211"
         inkscape:connector-curvature="0"
         sodipodi:nodetypes="sssssssssssssssssssssssssssssssssssssssssscsssscssssssssscsssssscsssscsssssssssssssssssscssssssssssscsssssscsssssssssssssssscssssssscssssssssccsssssssssssssssssssssssssssscsssccssssssssscssssssssssssssssssssssssssssscccscccscssssssssssssssssssccsssscssssssssscssssssssssssssssssssssssssscssssssssssssscssssscsssssssssssssssssssssssssssssssssssscsssscsssssssccsssssscssscsssccssssccs" />
    </g>
  </g>
</svg>
