<?xml version="1.0" encoding="UTF-8" standalone="no"?>
<svg
   xmlns:dc="http://purl.org/dc/elements/1.1/"
   xmlns:cc="http://creativecommons.org/ns#"
   xmlns:rdf="http://www.w3.org/1999/02/22-rdf-syntax-ns#"
   xmlns:svg="http://www.w3.org/2000/svg"
   xmlns="http://www.w3.org/2000/svg"
   xmlns:sodipodi="http://sodipodi.sourceforge.net/DTD/sodipodi-0.dtd"
   xmlns:inkscape="http://www.inkscape.org/namespaces/inkscape"
   version="1.1"
   x="0px"
   y="0px"
   viewBox="0 0 79.515999 79.514"
   enable-background="new 0 0 100 100"
   xml:space="preserve"
   id="svg2"
   inkscape:version="0.91 r13725"
   sodipodi:docname="share.svg"
   width="79.515999"
   height="79.514"><metadata
     id="metadata14"><rdf:RDF><cc:Work
         rdf:about=""><dc:format>image/svg+xml</dc:format><dc:type
           rdf:resource="http://purl.org/dc/dcmitype/StillImage" /><dc:title></dc:title></cc:Work></rdf:RDF></metadata><defs
     id="defs12" /><sodipodi:namedview
     pagecolor="#ffffff"
     bordercolor="#666666"
     borderopacity="1"
     objecttolerance="10"
     gridtolerance="10"
     guidetolerance="10"
     inkscape:pageopacity="0"
     inkscape:pageshadow="2"
     inkscape:window-width="1920"
     inkscape:window-height="1027"
     id="namedview10"
     showgrid="false"
     fit-margin-top="0"
     fit-margin-left="0"
     fit-margin-right="0"
     fit-margin-bottom="0"
     inkscape:zoom="1.888"
     inkscape:cx="39.428"
     inkscape:cy="27.506"
     inkscape:window-x="-8"
     inkscape:window-y="-8"
     inkscape:window-maximized="1"
     inkscape:current-layer="svg2" /><path
     d="m 78.337,48.572 c -0.651,0 -1.179,0.527 -1.179,1.179 l 0,19.146 c 0,4.554 -3.707,8.261 -8.263,8.261 l -58.274,0 c -4.556,0 -8.263,-3.707 -8.263,-8.261 l 0,-58.276 c 0,-4.556 3.707,-8.263 8.263,-8.263 l 27.471,0 c 0.652,0 1.179,-0.527 1.179,-1.179 C 39.271,0.527 38.744,0 38.092,0 L 10.621,0 C 4.764,0 0,4.763 0,10.62 l 0,58.276 c 0,5.855 4.764,10.618 10.621,10.618 l 58.274,0 c 5.857,0 10.621,-4.763 10.621,-10.618 l 0,-19.145 c 0,-0.651 -0.528,-1.179 -1.179,-1.179 z M 28.393,29.171 c -7.434,7.927 -6.773,19.606 -6.741,20.099 0.042,0.624 0.56,1.103 1.174,1.103 0.025,0 0.051,-0.002 0.076,-0.002 0.649,-0.041 1.144,-0.601 1.103,-1.25 -0.007,-0.113 -0.617,-11.18 6.12,-18.349 3.87,-4.121 9.444,-6.209 16.572,-6.209 l 27.85,0 -19.282,21.03 c -0.44,0.479 -0.408,1.225 0.071,1.665 0.226,0.209 0.511,0.311 0.797,0.311 0.318,0 0.635,-0.129 0.868,-0.382 L 78.095,24.18 c 0.435,-0.474 0.41,-1.209 -0.058,-1.653 L 56.944,2.545 C 56.47,2.101 55.726,2.121 55.277,2.591 54.83,3.063 54.851,3.809 55.323,4.258 l 18.946,17.946 -27.573,0 c -7.812,0 -13.97,2.344 -18.303,6.967 z"
     id="path4"
     style="fill:#f9f9f9"
     inkscape:connector-curvature="0" /></svg>