<svg xmlns="http://www.w3.org/2000/svg" xmlns:xlink="http://www.w3.org/1999/xlink" version="1.1" x="0px" y="0px" viewBox="0 0 32 32" enable-background="new 0 0 32 32" xml:space="preserve"><path fill-rule="evenodd" clip-rule="evenodd" fill="#000000" d="M29.374,17.609l-7.038,7.187l0,0l-4.225,4.311  c-1.167,1.191-3.058,1.191-4.224,0l-4.223-4.311l0,0l-7.041-7.187c-3.498-3.569-3.498-9.36,0-12.931  c3.501-3.571,9.175-3.571,12.673,0L16,5.397l0.705-0.719c3.499-3.571,9.171-3.571,12.669,0C32.875,8.25,32.875,14.04,29.374,17.609  L29.374,17.609z M27.931,6.091c-2.716-2.787-7.122-2.787-9.838,0l-2.108,2.161l-2.108-2.161c-2.717-2.787-7.122-2.787-9.839,0  c-2.717,2.784-2.717,7.3,0,10.084l7.028,7.205l0,0l4.216,4.322c0.387,0.396,1.017,0.396,1.406,0l5.621-5.766h0.002l5.62-5.761  C30.648,13.391,30.648,8.875,27.931,6.091L27.931,6.091z M25.935,11.591c0.037-0.191,0.061-0.387,0.061-0.588  c0-1.66-1.343-3.002-2.999-3.002c-0.2,0-0.398,0.021-0.588,0.059l-0.195-0.98C22.467,7.031,22.729,7,22.996,7  c2.209,0,3.998,1.792,3.998,4.003c0,0.269-0.028,0.529-0.08,0.784L25.935,11.591L25.935,11.591z"></path></svg>