<?xml version="1.0" encoding="UTF-8" standalone="no"?>
<!-- Created with Inkscape (http://www.inkscape.org/) -->

<svg
   xmlns:dc="http://purl.org/dc/elements/1.1/"
   xmlns:cc="http://creativecommons.org/ns#"
   xmlns:rdf="http://www.w3.org/1999/02/22-rdf-syntax-ns#"
   xmlns:svg="http://www.w3.org/2000/svg"
   xmlns="http://www.w3.org/2000/svg"
   xmlns:sodipodi="http://sodipodi.sourceforge.net/DTD/sodipodi-0.dtd"
   xmlns:inkscape="http://www.inkscape.org/namespaces/inkscape"
   width="130mm"
   height="130mm"
   viewBox="0 0 460.62982 460.62985"
   id="svg2"
   version="1.1"
   inkscape:version="0.91 r13725"
   sodipodi:docname="menu-placeholder.svg">
  <defs
     id="defs4" />
  <sodipodi:namedview
     id="base"
     pagecolor="#ffffff"
     bordercolor="#666666"
     borderopacity="1.0"
     inkscape:pageopacity="0.0"
     inkscape:pageshadow="2"
     inkscape:zoom="0.7"
     inkscape:cx="-235.50754"
     inkscape:cy="48.40476"
     inkscape:document-units="px"
     inkscape:current-layer="layer1"
     showgrid="false"
     fit-margin-left="2"
     fit-margin-top="2"
     fit-margin-right="2"
     fit-margin-bottom="2"
     inkscape:window-width="1920"
     inkscape:window-height="1027"
     inkscape:window-x="-8"
     inkscape:window-y="-8"
     inkscape:window-maximized="1" />
  <metadata
     id="metadata7">
    <rdf:RDF>
      <cc:Work
         rdf:about="">
        <dc:format>image/svg+xml</dc:format>
        <dc:type
           rdf:resource="http://purl.org/dc/dcmitype/StillImage" />
        <dc:title></dc:title>
      </cc:Work>
    </rdf:RDF>
  </metadata>
  <g
     inkscape:label="Layer 1"
     inkscape:groupmode="layer"
     id="layer1"
     transform="translate(323.55368,-122.4289)">
    <rect
       style="fill:#e6e6e6"
       id="rect3358"
       width="399.99994"
       height="399.99994"
       x="-293.23874"
       y="152.74387"
       rx="47.94519"
       ry="58.823517" />
    <g
       id="g3352"
       transform="translate(-178.27726,288.96433)"
       style="fill:#1a1a1a">
      <path
         id="path3338"
         d="m 14.173,14.173 8.504,0 C 28.346,14.173 28.346,0 34.016,0 l 5.67,0 0.014,0 0.042,0 0.07,0 0.051,0 0.046,0 0.123,0 0.062,0 0.086,0 0.141,0 0.032,0 0.192,0 0.004,0 0.216,0 0.003,0 0.214,0 0.027,0 0.185,0 0.077,0 0.133,0 0.15,0 0.055,0 0.202,0 0.045,0 0.152,0 0.169,0 0.023,0 0.188,0 0.128,0 0.056,0 0.179,0 0.122,0 0.053,0 0.169,0 0.151,0 0.014,0 0.159,0 0.154,0 0.063,0 0.086,0 0.144,0 0.137,0 0.038,0 0.093,0 0.125,0 0.12,0 0.081,0 0.032,0 0.107,0 0.101,0 0.093,0 0.087,0 0.012,0 0.068,0 0.073,0 0.066,0 0.058,0 0.051,0 0.044,0 0.036,0 0.028,0 0.021,0 0,0 0.012,0 0.004,0 19.843,0 c 5.669,0 5.669,14.173 11.338,14.173 l 53.858,0 c 0,-3.13 2.539,-5.669 5.669,-5.669 l 5.67,0 c 3.13,0 5.669,2.539 5.669,5.669 l 8.504,0 c 7.826,0 14.173,6.347 14.173,14.173 l 0,85.039 c 0,7.827 -6.347,14.174 -14.173,14.174 l -141.731,0 C 6.347,127.56 0,121.213 0,113.386 L 0,28.347 C 0,20.52 6.347,14.173 14.173,14.173 l 0,0 z m 99.213,14.174 c -23.479,0 -42.52,19.041 -42.52,42.52 0,23.479 19.04,42.52 42.52,42.52 23.479,0 42.52,-19.04 42.52,-42.52 -0.001,-23.48 -19.042,-42.52 -42.52,-42.52 l 0,0 z m -79.37,14.173 17.008,0 c 3.13,0 5.669,-2.539 5.669,-5.669 l 0,-2.834 c 0,-3.131 -2.539,-5.669 -5.669,-5.669 l -17.008,0 c -3.131,0 -5.669,2.539 -5.669,5.669 l 0,2.834 c -0.001,3.13 2.538,5.669 5.669,5.669 z"
         inkscape:connector-curvature="0"
         style="clip-rule:evenodd;fill:#1a1a1a;fill-rule:evenodd" />
      <path
         id="path3340"
         d="m 113.386,39.685 c -17.218,0 -31.181,13.963 -31.181,31.181 0,17.218 13.963,31.182 31.181,31.182 17.218,0 31.181,-13.964 31.181,-31.182 0,-17.218 -13.963,-31.181 -31.181,-31.181 l 0,0 z"
         inkscape:connector-curvature="0"
         style="clip-rule:evenodd;fill:#1a1a1a;fill-rule:evenodd" />
    </g>
  </g>
</svg>
